HIERARCHY
ROOT Pelvis
{
	OFFSET 0.000000 0.000000 0.000000
	CHANNELS 6 Xposition Yposition Zposition Zrotation Yrotation Xrotation 
	JOINT Left_hip
	{
		OFFSET 0.067986 -0.089946 -0.007639
		CHANNELS 3 Zrotation Yrotation Xrotation
		JOINT Left_knee
		{
			OFFSET 0.036308 -0.388288 -0.004016
			CHANNELS 3 Zrotation Yrotation Xrotation
			JOINT Left_ankle
			{
				OFFSET -0.012264 -0.413250 -0.042878
				CHANNELS 3 Zrotation Yrotation Xrotation
				JOINT Left_foot
				{
					OFFSET 0.024043 -0.058563 0.118570
					CHANNELS 3 Zrotation Yrotation Xrotation
					End Site
					{
						OFFSET 0.000000 0.000000 0.000000
					}
				}
			}
		}
	}
	JOINT Right_hip
	{
		OFFSET -0.065648 -0.089374 -0.003858
		CHANNELS 3 Zrotation Yrotation Xrotation
		JOINT Right_knee
		{
			OFFSET -0.042132 -0.395021 -0.006361
			CHANNELS 3 Zrotation Yrotation Xrotation
			JOINT Right_ankle
			{
				OFFSET 0.014805 -0.413264 -0.041054
				CHANNELS 3 Zrotation Yrotation Xrotation
				JOINT Right_foot
				{
					OFFSET -0.021758 -0.049013 0.121832
					CHANNELS 3 Zrotation Yrotation Xrotation
					End Site
					{
						OFFSET 0.000000 0.000000 0.000000
					}
				}
			}
		}
	}
	JOINT Spine1
	{
		OFFSET -0.002755 0.104406 -0.022277
		CHANNELS 3 Zrotation Yrotation Xrotation
		JOINT Spine2
		{
			OFFSET 0.004136 0.129393 -0.002186
			CHANNELS 3 Zrotation Yrotation Xrotation
			JOINT Spine3
			{
				OFFSET 0.001906 0.049304 0.025578
				CHANNELS 3 Zrotation Yrotation Xrotation
				JOINT Neck
				{
					OFFSET -0.004620 0.210958 -0.044063
					CHANNELS 3 Zrotation Yrotation Xrotation
					JOINT Head
					{
						OFFSET 0.003833 0.067393 0.052435
						CHANNELS 3 Zrotation Yrotation Xrotation
						End Site
						{
							OFFSET 0.000000 0.000000 0.000000
						}
					}
				}
				JOINT Left_collar
				{
					OFFSET 0.070771 0.116689 -0.037192
					CHANNELS 3 Zrotation Yrotation Xrotation
					JOINT Left_shoulder
					{
						OFFSET 0.080652 0.031596 -0.005617
						CHANNELS 3 Zrotation Yrotation Xrotation
						JOINT Left_elbow
						{
							OFFSET 0.262654 -0.015020 -0.027939
							CHANNELS 3 Zrotation Yrotation Xrotation
							JOINT Left_wrist
							{
								OFFSET 0.250438 0.010062 -0.000990
								CHANNELS 3 Zrotation Yrotation Xrotation
								JOINT Left_palm
								{
									OFFSET 0.081198 -0.010037 -0.013706
									CHANNELS 3 Zrotation Yrotation Xrotation
									End Site
									{
										OFFSET 0.000000 0.000000 0.000000
									}
								}
							}
						}
					}
				}
				JOINT Right_collar
				{
					OFFSET -0.072972 0.115556 -0.040762
					CHANNELS 3 Zrotation Yrotation Xrotation
					JOINT Right_shoulder
					{
						OFFSET -0.082917 0.031841 -0.006673
						CHANNELS 3 Zrotation Yrotation Xrotation
						JOINT Right_elbow
						{
							OFFSET -0.252882 -0.013790 -0.020410
							CHANNELS 3 Zrotation Yrotation Xrotation
							JOINT Right_wrist
							{
								OFFSET -0.255570 0.009163 -0.005138
								CHANNELS 3 Zrotation Yrotation Xrotation
								JOINT Right_palm
								{
									OFFSET -0.080804 -0.007282 -0.010415
									CHANNELS 3 Zrotation Yrotation Xrotation
									End Site
									{
										OFFSET 0.000000 0.000000 0.000000
									}
								}
							}
						}
					}
				}
			}
		}
	}
}
MOTION
Frames: 12
Frame Time: 0.100000
0.000000 0.000000 0.000000 174.452353 22.401443 -13.403208 7.526253 7.702009 2.886138 -2.666346 -13.952520 -1.296061 -4.529727 18.090151 -5.791112 2.314840 -1.265716 -4.553820 -4.970232 -5.456805 0.900160 4.114324 12.477014 2.330825 5.475853 -14.147565 -6.173577 0.766949 5.494326 3.468270 0.733521 1.450632 3.310940 1.283641 -3.041274 1.403685 1.426994 1.163942 0.239896 -5.356106 1.775971 1.943726 4.914836 0.435159 -15.959234 -3.971817 2.346568 -8.838271 4.172039 2.296488 -15.025786 1.944372 -5.579856 -10.466088 3.873714 -6.520414 25.396162 -6.056228 -8.680312 -9.100276 5.720707 0.824567 -2.833719 -1.732963 -7.295962 -18.868014 -2.278286 11.435324 -1.690516 -2.439206 7.005594 27.673536 11.267929 7.686612 -7.529215 
0.000065 0.000069 -0.000169 174.455865 22.480564 -13.500683 7.530166 7.679610 2.894441 -2.737664 -14.018131 -1.148645 -4.519533 18.071951 -5.833682 2.289819 -1.240495 -4.594239 -5.007629 -5.481726 0.941890 4.152446 12.478970 2.472304 5.487659 -14.181103 -6.248376 0.687934 5.485197 3.447812 0.747378 1.439801 3.402038 1.277066 -3.053392 1.373448 1.427912 1.167318 0.261601 -5.343390 1.605346 1.939389 4.973431 0.384741 -15.959585 -4.003536 2.343718 -8.827727 3.997687 2.264889 -14.983366 1.946534 -5.587015 -10.376628 3.879676 -6.411591 25.415767 -6.105642 -8.720946 -9.132507 5.678728 0.824160 -2.857590 -1.701877 -7.316766 -18.920979 -2.297879 11.432633 -1.755087 -2.461819 6.933240 27.746783 11.323445 7.723457 -7.578111 
0.000012 0.000179 -0.000900 174.464218 22.531472 -13.509952 7.503866 7.674176 2.862187 -2.753127 -14.033730 -1.131017 -4.533583 18.079323 -5.836132 2.334530 -1.255922 -4.596253 -5.033751 -5.494343 0.898493 4.161153 12.469022 2.530945 5.495596 -14.199836 -6.255470 0.642598 5.502121 3.427923 0.798612 1.452718 3.491894 1.269730 -3.031093 1.351215 1.431766 1.184617 0.260494 -5.348371 1.545250 1.843705 4.960479 0.370263 -15.985853 -4.057736 2.323515 -8.822475 3.972861 2.275735 -14.967385 1.960024 -5.604327 -10.382349 3.812906 -6.384138 25.419288 -6.124377 -8.749544 -9.130900 5.696864 0.862931 -2.859581 -1.752674 -7.358691 -18.933392 -2.312488 11.472395 -1.828001 -2.381901 6.886748 27.729165 11.325599 7.745351 -7.604826 
0.000251 0.000286 -0.001580 174.451566 22.553639 -13.500671 7.483682 7.665877 2.694306 -2.797736 -13.999049 -0.994632 -4.526577 18.056122 -5.820217 2.340549 -1.239331 -4.620168 -5.034150 -5.517139 0.783660 4.167589 12.429784 2.590856 5.525785 -14.187817 -6.234904 0.572365 5.501565 3.417702 0.829850 1.465942 3.633756 1.309835 -3.032049 1.366286 1.476230 1.189951 0.273101 -5.296837 1.528457 1.808353 4.999550 0.414013 -15.960203 -4.111066 2.292784 -8.780756 3.818296 2.319783 -14.939251 1.983770 -5.640729 -10.389253 3.842198 -6.391081 25.322529 -6.135246 -8.748909 -9.103381 5.722929 0.905777 -2.829793 -1.724221 -7.360486 -18.954465 -2.353282 11.622285 -1.834977 -2.445524 6.926317 27.771482 11.328001 7.733542 -7.610560 
0.000552 0.000361 -0.001984 174.459784 22.506610 -13.478865 7.484061 7.661727 2.640600 -2.793992 -13.945450 -0.985417 -4.503149 18.033994 -5.806334 2.325065 -1.184562 -4.585062 -5.017604 -5.496824 0.722343 4.160947 12.399726 2.580456 5.502458 -14.123042 -6.208248 0.626152 5.454201 3.456974 0.811839 1.499087 3.658742 1.328094 -3.013420 1.562423 1.476926 1.196845 0.245795 -5.193265 1.552991 1.994492 5.076056 0.422462 -15.919039 -4.216750 2.310307 -8.744313 3.801710 2.320968 -14.861816 2.064519 -5.858470 -10.308521 3.891197 -6.449313 25.389285 -6.166725 -8.753933 -9.165129 5.808024 0.883114 -2.791731 -1.676488 -7.364813 -18.940449 -2.449524 11.799522 -1.907286 -2.435213 6.984882 27.664421 11.339426 7.718122 -7.600529 
0.000928 0.000377 -0.001849 174.436228 22.569331 -13.434777 7.512989 7.623879 2.583367 -2.785892 -13.908802 -1.027156 -4.478238 17.942182 -5.772888 2.315269 -1.091944 -4.552585 -4.983015 -5.488298 0.703476 4.155264 12.282586 2.527938 5.471394 -14.063410 -6.222244 0.658601 5.370863 3.548745 0.723447 1.500924 3.594211 1.357776 -3.055178 1.687732 1.465336 1.161501 0.193150 -5.115114 1.650720 2.290060 5.073065 0.499898 -15.574044 -4.346829 2.388426 -8.721887 3.658291 2.160075 -14.786436 2.179937 -6.093457 -10.228651 3.639426 -6.453417 25.409800 -6.185788 -8.726247 -9.156322 5.974320 0.746587 -2.823941 -1.497262 -7.237295 -18.883558 -2.670843 12.038778 -2.053630 -2.268910 6.944020 27.622443 11.367177 7.707081 -7.552133 
0.000879 0.000362 -0.001408 174.422448 22.611190 -13.554345 7.541890 7.578251 2.627802 -2.832211 -13.906660 -0.819621 -4.456032 17.853071 -5.871455 2.382014 -0.997875 -4.596079 -4.988728 -5.480804 0.826173 4.168664 12.186900 2.630152 5.413844 -13.960236 -6.312091 0.645739 5.276240 3.608844 0.694225 1.483357 3.618898 1.351721 -3.079800 1.954925 1.430920 1.138470 0.148051 -5.083237 1.671212 2.489279 4.935196 0.648307 -15.438334 -4.671519 2.564955 -8.640368 3.267814 2.151311 -14.662183 2.937286 -7.427906 -10.120125 3.790754 -6.434501 25.463446 -6.395008 -8.829958 -9.216711 6.187636 0.557485 -2.817470 -1.383593 -7.198932 -18.910305 -3.131472 12.885964 -2.231641 -2.192716 6.943842 27.665975 11.529926 7.800538 -7.545964 
0.000069 0.000386 -0.001136 174.458036 22.634519 -13.598898 7.496691 7.503963 2.623751 -2.919290 -13.735980 -0.595528 -4.381039 17.631019 -5.978295 2.478492 -0.767266 -4.704486 -5.067830 -5.446402 0.815135 4.170920 11.963381 2.885903 5.489688 -13.743843 -6.489470 0.337656 5.157510 3.686858 0.734450 1.479376 3.671903 1.289494 -3.044774 2.193719 1.337722 1.132531 0.125190 -4.938642 1.541365 2.513415 4.779034 0.710635 -15.357379 -5.272293 3.101353 -8.626742 2.351029 2.190100 -14.323548 4.850855 -10.590990 -10.172708 4.034193 -6.401665 25.437606 -6.853822 -9.108280 -9.456406 6.525018 0.050755 -2.888208 -0.924302 -7.308623 -18.819537 -4.503888 15.672512 -3.057455 -2.383978 7.069638 27.133084 11.924159 8.007526 -7.624872 
-0.001442 0.000474 -0.001093 174.531070 22.637440 -13.401503 7.375210 7.257792 2.487989 -2.981707 -13.025454 -0.610064 -4.086977 16.897750 -5.927262 2.618054 0.066653 -4.734920 -5.197971 -5.239762 0.651054 4.062277 11.220888 2.948818 5.888554 -13.026872 -6.737624 -0.587815 4.514736 3.849848 0.757291 1.409603 3.716360 1.292572 -3.056548 2.279976 1.237038 0.961599 0.079078 -4.549386 1.843742 2.294893 4.225874 0.876092 -15.330392 -6.269640 4.451970 -8.649443 0.212921 2.859367 -13.318356 9.644783 -17.712897 -10.199826 3.457954 -6.434002 25.326765 -7.692408 -9.521382 -10.027998 7.273495 -1.144965 -3.343669 0.422031 -7.258653 -18.341152 -9.254972 25.049397 -6.202236 -2.641215 7.287916 24.296370 12.830093 8.012687 -7.728529 
-0.003827 0.000590 -0.001456 174.746899 22.406987 -13.141190 7.104783 6.862128 2.362152 -3.008249 -11.591197 -0.636435 -3.526724 15.563062 -5.822099 2.653511 1.676750 -4.623639 -5.472125 -4.867083 0.442155 3.882546 9.935998 2.975028 6.416600 -11.574132 -6.955619 -1.594387 3.188372 4.050714 0.707355 1.413498 3.504832 1.377865 -2.991040 2.497733 1.054256 0.832134 -0.085734 -3.653798 2.469258 2.509905 3.559890 0.842908 -15.341237 -7.285667 6.004172 -8.873223 -3.284552 2.635279 -11.421119 17.088487 -27.252416 -11.345495 4.036050 -7.130612 24.220791 -8.875942 -9.889912 -10.927993 8.096774 -2.439961 -4.115651 3.025711 -5.981713 -17.295515 -19.381989 39.291044 -14.364187 -4.998153 8.364214 17.890595 14.230211 7.685059 -7.640970 
-0.007048 0.000800 -0.002214 175.039575 21.645727 -13.057531 6.797005 6.468496 2.511572 -2.994172 -9.274594 -0.623933 -2.587502 13.734216 -5.642876 2.410664 3.778482 -4.876325 -5.804823 -4.231492 0.344775 3.620941 8.262935 2.979754 7.199089 -9.467770 -7.046311 -3.223546 1.816837 4.114381 0.609362 1.536182 3.156033 1.498883 -2.729306 3.157345 0.782531 0.834705 -0.309227 -2.315826 2.879967 2.736393 2.945287 -0.066783 -15.205116 -8.166849 7.499930 -8.700961 -9.978673 1.823202 -8.209803 28.384597 -39.146823 -16.405260 5.071018 -7.658475 20.176867 -10.799548 -10.157160 -12.157275 9.135982 -2.638202 -4.611319 9.327648 -2.485943 -14.631120 -38.764846 52.856991 -33.091590 -7.244751 8.858766 5.250991 15.730099 6.921829 -6.980103 
-0.011114 0.001327 -0.003722 175.109779 21.340930 -12.992173 6.487954 5.880704 2.233159 -3.064744 -7.136814 -0.227958 -1.965738 11.896929 -5.633928 2.657068 5.537420 -5.208479 -6.201187 -3.788377 0.364779 3.429976 6.191729 2.713136 7.676769 -7.388183 -6.818589 -4.437339 0.788100 4.125958 0.397031 1.800049 2.704261 1.852870 -2.608631 4.384232 0.612375 0.779696 -1.291743 -1.073356 2.888805 2.795399 2.399299 -1.213217 -13.763151 -10.589467 7.926616 -8.073156 -17.173122 0.963737 -4.164425 37.961940 -48.815949 -21.607725 2.336462 -9.085585 17.392203 -12.014622 -9.912964 -12.288281 12.102272 -1.481742 -4.418600 16.426824 0.627196 -9.638382 -56.855385 61.553981 -49.255329 -4.296118 10.383048 -1.359333 15.899684 6.279183 -5.965519 
